<?xml version="1.0" encoding="utf-8"?>
<!-- Generator: Adobe Illustrator 19.0.0, SVG Export Plug-In . SVG Version: 6.00 Build 0)  -->
<svg version="1.1" xmlns="http://www.w3.org/2000/svg" xmlns:xlink="http://www.w3.org/1999/xlink" x="0px" y="0px"
	 viewBox="0 0 460.8 259.2" style="enable-background:new 0 0 460.8 259.2;" xml:space="preserve">
<style type="text/css">
	.st0{fill:#FFFFFF;}
</style>
<g id="Layer_0__x2B__Layer_16__x2B__Layer_22__x2B__Layer_14__x2B__Layer_13__x2B__Layer_15__x2B__Group_1_xA0_Image_1_">
</g>
<g id="Layer_11_xA0_Image_1_">
	<g>
		<path class="st0" d="M34,109.2c1.2,0.2,2.7-0.2,2.7,1.9c0,2.1-1.6,1.5-2.7,1.7C34,111.6,34,110.4,34,109.2z"/>
		<path class="st0" d="M384.9,79.9c5.6-0.1,11.3-0.1,16.9-0.3c2.2-0.1,3.3,0.6,4.3,2.7c3.2,6.7,4.5,13.6,4.3,21.1
			c-0.3,19.6-0.2,39.2-0.1,58.7c0,3.5-0.9,4.4-4.4,4.4c-107.2-0.9-214.5-0.6-321.7,0c-1.5,0-2.9-0.2-4.4-0.2
			c-14.8,0.9-12.2,1.6-12.3-10.7c-0.2-19.7-0.1-39.5,0-59.2c0-2.2-0.4-4.5,0.7-6.6c1.4-1.7,3.4-1.4,5.3-1.4
			c5.7-0.2,11.4,0.3,17.1-0.3c3.1-0.5,6.2-0.1,9.3-0.2c1.1,0.1,2.3-0.1,3.3,0.5c0.4,0.4,0.1,1.5,1.1,1.5c0.6,0,0.6-0.5,0.7-0.9
			c0.4-1.6-1-0.8-1.5-1.1c-1.4-0.1-2.8-0.1-4.1-0.1c-2.9,0.1-5.8-0.2-8.6,0.2c-9.8,0.1-19.5,0.7-29.3-0.3c-1.2-0.6-1.5-1.6-1.3-2.8
			c0.2-0.5,0.4-1,0.9-1.4l-0.1,0.1c2.8-1.4,5.8-0.4,8.7-0.7c2.7,0,5.4,0,8.1,0c2.2,0,4.5,0,6.7,0c0.3,0,0.6,0,0.9,0
			c41-0.5,82-1.1,123-0.8c1.5,0,3,0.1,4.4-0.4c3-0.7,6.1-0.3,9.2-0.5c6.8,0,13.5,0,20.3,0c0.8,0,2.1,0.9,2.5-0.8
			c9.8-0.3,19.6-0.1,29.3-0.1c35.4,0,70.8,0,106.2,0C381.7,80.2,383.3,80.6,384.9,79.9z"/>
		<path class="st0" d="M83.3,170.5c31.7,0.1,63.5,0.2,95.2,0.2c71,0,142.1,0,213.1,0c5.2,0,10.4-0.1,15.6-0.3
			c2.2-0.1,3.2,0.3,3.2,2.8c0,2.6-1.1,2.9-3.3,2.7c-57.8-3.2-115.6-1.5-173.5-1.8c-45.5-0.2-91,0.2-136.6,0.4c-1.3,0-2.7-0.1-4-0.2
			c-7.7,0.7-15.4,0.1-23.1,0.3c-1.7,0-3-0.4-2.9-2.4c0.1-1.8,1.4-2.1,2.8-2C74.4,170.4,78.9,169.8,83.3,170.5z"/>
		<path class="st0" d="M56.4,166.9c0-27.7,0-55.4,0.1-83.1c2.1-1.6,2.7,0.2,3.2,1.6c0.4,1.1,0.5,2.3,0.9,3.4c0.2,0.8,0.1,1.5,0,2.3
			c-0.7,10.4-0.4,20.7-0.2,31.1c0.2,0.5,0.3,1,0.4,1.5c0.3,1.9,0.2,3.9,0.3,5.9c0,1.2,0,2.4,0,3.6c0,1,0,1.9,0,2.9c0,1,0,1.9,0,2.9
			c0,1.9,0,3.9,0,5.8c0,1.2,0,2.4,0,3.6c0,1.4,0,2.7,0,4.1c0.9,3.2,0.2,6.6,1.3,9.7c0.3,1.4,0.4,2.8-0.2,4.2c-0.4,0.7-1,1-1.7,1.3
			C59.1,167.3,57.6,168.1,56.4,166.9z"/>
		<path class="st0" d="M384.9,79.9c-1.8,1-3.8,0.6-5.7,0.6c-43.2,0.1-86.4,0.1-129.6,0.2c-1.8,0-3.9-0.8-5.5,0.9
			c-7.3,1-14.6,0.2-21.9,0.5c-3,0.1-6.1-0.1-9.1,0.1c-1.6,0.5-3.3,0.4-4.9,0.2c-10.9-0.8-21.9-0.1-32.8-0.4c-2.2,0-4.4,0.3-6.6-0.7
			c-0.5-0.3-0.8-0.8-0.6-1.4c1.5-1.4,3.1-1.1,4.7-0.1c68.7,0,137.4,0,206.2,0C381.1,79.6,383,79.8,384.9,79.9z"/>
		<path class="st0" d="M141.7,77.2c0.3,0,0.6,0,0.9,0c2.1,0.8,4.3,0.1,6.4,0.4c0.9,0.1,2.3-0.1,1.5,1.6c-3.1,1.7-6.4,0.6-9.6,0.9
			c-3,0-6,0-9,0c-4.4,0-8.8,0-13.2,0c-3.3,0-6.7,0-10,0c-7.8-0.2-15.7,0.4-23.5-0.3c-5.3-1.1-10.7-0.3-16-0.6
			c-1.9-0.1-3.8,0.2-5.5-0.8c-0.5-0.4-0.6-0.8-0.3-1.4c19.6-0.1,39.3-0.1,58.9-0.1c3.8,0,7.7,0.2,11.5,0.3
			C136.4,77.8,139.1,77.8,141.7,77.2z"/>
		<path class="st0" d="M213,82.6c-1,0.1-2,0.4-3,0.4c-41.5,0.2-82.9,0.3-124.4,0.5c-0.6,0-1.2-0.1-1.8-0.2c-0.3-0.2-0.4-0.4-0.3-0.5
			c0.1-0.2,0.2-0.2,0.3-0.2c12.1-0.1,24.3-0.2,36.4-0.3c2-1.4,4.3-1,6.4-1c26-0.3,52,0.6,78,0.4c2.4-0.2,4.7,0.7,7,0.5
			C212.3,82,212.7,82.2,213,82.6z"/>
		<path class="st0" d="M51,99.3c1.3,7.8,1.5,15.7,1.7,23.7c0,1.9,0,3.8,0.1,5.8c0.3,0.4,0.3,0.8,0.1,1.2c-0.4,2.2,0,4.4-0.3,6.7
			c-0.1,0.4-0.4,0.8-0.8,1.1c-1.9,2.8-0.6,5.9-0.9,8.8c-0.4,3.9,0.6,7.9-0.7,11.7c-1.1-0.8-1-1.9-1-3c0-4.7,0-9.4,0-14.2
			c0-9.6-0.1-19.2,0.1-28.8C50.3,108,48.9,103.4,51,99.3z"/>
		<path class="st0" d="M68.7,89.8c0,23.5,0,47.1,0,70.6c0,5.7,0,5.7,5.8,5.7c1.8,0,3.6,0.1,5.3,0.1c-4,0.9-8,0.5-12,0.7
			c-2.4-3.5-0.8-7.4-1.3-11.1c0-2.1,0-4.2,0-6.3c0-1.6,0-3.1,0-4.7c0-1.6,0-3.2,0-4.8c0-6,0-12,0-18c0-2.7,0-5.4,0-8.1
			c0-1.8,0-3.7,0-5.5c0-2.4,0-4.7,0-7.1c0-1.8,0-3.7,0-5.5C67.2,93.7,65.2,90.8,68.7,89.8z"/>
		<path class="st0" d="M205.8,82.2c-28.5,0-57,0-85.5,0c0-0.2,0.1-0.4,0-0.6c2.8-2.3,6.1-1,9.2-1.3c1.7-0.2,3.5,0,5.2,0
			c23.4-0.4,46.7,1.4,70.1,0.8C205.6,81.1,205.9,81.5,205.8,82.2z"/>
		<path class="st0" d="M83.3,170.5c-4.1,0.1-8.3,0.1-12.4,0.2c-1.3,0-2.9-0.3-2.9,1.8c0,2,1.7,1.7,3,1.7c7.4,0.1,14.8,0.1,22.2,0.2
			c-11.5,1.1-23,0.6-34.5,0.6c-4,0-1.6-3.3-2.3-5c0.3-0.4,0.6-0.5,1-0.2c1.3,3.4,3.8,3.9,7.2,2.9c-1.5-1.2-3.2-0.5-4.5-1.2
			c-0.8-0.4-2.2-0.8-0.7-2c1.9,0.2,3.8-0.4,5.7,0.3C71.2,170.3,77.3,169.3,83.3,170.5z"/>
		<path class="st0" d="M50.1,111.9c-0.1,9.8-0.2,19.6-0.3,29.3c-0.6,1.2,0.1,2.5-0.6,3.7c-0.4,0.2-0.8,0.2-1.1-0.1
			c0.1-11.3,0.2-22.5,0.2-33.8c0.6-0.9-0.2-2.2,0.9-3c0.5,0,0.8,0.2,1,0.6C50.4,109.7,50.7,110.8,50.1,111.9z"/>
		<path class="st0" d="M417,107.4c1.7,4.6,0.5,9.3,0.8,13.9c0.2,3.7,0.1,7.4,0.2,11c0,5.3,1.6,10.5,1.1,15.9c-0.2,1.6,0,3.3-1.1,4.7
			c0,4.5,0,9.1-0.2,13.6c0,1.4,0.6,3-1.1,3.9c-1.2-2.3-1-4.8-1-7.3c0-15.2,0.1-30.5-0.1-45.7c0.1-1.6,0.5-3.2,0.5-4.8
			C416.2,110.9,415.4,108.9,417,107.4z"/>
		<path class="st0" d="M414.9,168.1c-1.4-14.8-0.7-29.6-0.6-44.4c0-3.1-0.4-6.2,0.6-9.3c0.2,0.2,0.4,0.4,0.6,0.6
			c0.9,17.2,0.4,34.5,0.3,51.7C415.7,167.3,415.4,167.8,414.9,168.1z"/>
		<path class="st0" d="M418,152.9c0-6.8,0-13.7,0-20.5c1.5,1.8-0.1,4.3,1.6,6.9c0-2.5,0-4.2,0-5.9c0.3,0,0.6,0,0.9,0
			c0,5.9,0,11.8,0,17.6c-0.6-0.4-1.3,0.2-1.8,1.8C418.4,152.8,418.2,152.8,418,152.9z"/>
		<path class="st0" d="M54.4,189.3c-2.5,0.5-3.3-0.4-2.4-2.6c3-7,1.3-14.2,1-21.3c-0.1-1.9-0.8-3.7,1.4-6.1c0,7.9,0.3,15-0.1,22
			C54.2,184,56.7,186.6,54.4,189.3L54.4,189.3z"/>
		<path class="st0" d="M112,183c11,0,22,0,33,0c0,0.2,0,0.4,0,0.5c-11,0-22,0-33,0C112,183.3,112,183.1,112,183z"/>
		<path class="st0" d="M174.7,78.8c-0.6,0.1-1.2,0.2-1.7,0.3c-0.9,0.4-1.8,0.3-2.7,0.1c-0.5-0.6-0.6-1.2,0-1.9c10.7,0,21.4,0,32.1,0
			c0.2,0.6,0,1-0.6,1.2C192.7,78.7,183.7,78,174.7,78.8z"/>
		<path class="st0" d="M52.6,129.7c0.1-0.3,0.1-0.6,0.2-0.9c1.6,3.4,0.7,6.9,0.8,10.4c0.2,5.7,0.1,11.5-0.4,17.2
			c0.2-5.1-1.7-10.1-1.3-15.2c0.8-1.6,0.2-3.3,0.4-4.9C52.4,134.1,51.9,131.8,52.6,129.7z"/>
		<path class="st0" d="M63.4,77.9c1.7,0.1,3.4,0.2,5.1,0.3c3.8,0.7,7.7,0,11.5,0.4c0.5,0.3,0.7,0.7,0.5,1.3c-0.9,0.6-2,0.3-3,0.4
			c-2.1,0-4.2,0-6.3,0c-3.5-0.2-6.9,0.5-10.4-0.4c-0.9-1.1-1.8-1.2-2.8-0.1c-1.7,0.1-1.3-0.9-1-1.9c0.7-0.4,1.4-0.3,2.1-0.3
			C60.5,77.7,62,77.3,63.4,77.9z"/>
		<path class="st0" d="M418.6,152.8c0.1-1.2,0.1-2.4,0.2-3.9c0.7,0.9,1.2,1.5,1.6,2.2c0,6.6-0.1,13.1-0.1,19.7
			c-0.9,0-1.1-0.7-1.2-1.4c0.2-1.6-0.4-3.4,0.4-4.9c-0.3-0.6-0.6-1.2-0.8-1.8c0.7-1.7,0.6-3.4,0.1-5.2
			C418.7,155.9,418.7,154.4,418.6,152.8z"/>
		<path class="st0" d="M396.4,185c0,0.7,0.1,1.5,0,2.2c-0.2,1.6,0.8,4.2-1.8,4.3c-2.3,0.1-1.8-2.3-1.8-3.8c0-2.1-0.9-2.9-2.9-2.8
			c-2.2,0.1-4.4,0-6.6-0.9c3.5,0,7,0,10.5,0c0.4,0.5,0.8,1,0.8,1.6c0.2,1-0.1,2-0.3,3.2c0.5-1.2,0.2-2.3,0.7-3.3
			C395.3,184.9,395.7,184.5,396.4,185z"/>
		<path class="st0" d="M174.7,78.8c3.7-1.6,7.5-0.6,11.3-0.7c5.4-0.2,10.9-0.2,16.3-0.2c0.5-0.2,0.9-0.1,1.2,0.3
			C193.9,79,184.3,78.9,174.7,78.8z"/>
		<path class="st0" d="M170.2,77.2c0,0.5,0,1,0,1.5c-2.3,1.4-4.8,1.5-7.4,1.3c-0.5,0-1-0.1-1.5-0.2c-2.2-1.4-5.6,0.8-7.1-2.6
			C159.6,77.2,164.9,77.2,170.2,77.2z"/>
		<path class="st0" d="M50.1,111.9c-0.1-1.1-0.2-2.3-0.3-3.4c-1.2-4.5,0.2-9-0.2-13.6c-0.2-1.6,0-3.2,0-4.9c0-0.6,0.1-1.1,0.5-1.5
			c1.1,3.6,0.5,7.2,0.8,10.8C50.2,103.5,51.9,107.8,50.1,111.9z"/>
		<path class="st0" d="M154.2,77.2c2.1,1.9,5-0.3,7.1,1.5c-2,2.1-4.6,1.1-7,1.4c-1.4-0.1-2.8-0.1-3.7-1.4c-2.4-1.9-5.6,0.5-8-1.6
			C146.5,77.2,150.4,77.2,154.2,77.2z"/>
		<path class="st0" d="M134.7,81.5c-4.8,0-9.6,0.1-14.3,0.1c-2.1,0-4.1-0.1-6.2-0.1c-0.3-0.5-0.2-0.9,0.3-1.3
			c1.4-0.7,2.9-0.4,4.4-0.5c3.3,0,6.7,0,10,0c0.9,0,1.7,0,2.6-0.1c0.4-0.1,0.8-0.2,1.2-0.2c0.7,0.3,1.5,0.4,2.1,1
			C134.9,80.8,134.9,81.2,134.7,81.5z"/>
		<path class="st0" d="M96.2,182.3c4.3,0,8.6,0,13,0c0,0.6,0,1.2,0.1,1.8c-4.8-2.2-9.2-0.1-13.8-0.2C94.9,183,95.7,182.7,96.2,182.3
			z"/>
		<path class="st0" d="M105.3,81.6c-6.8-0.4-13.7,0.9-20.5-0.7c2.1-1.9,4.6-0.7,6.9-1c2.4,0,4.7,0,7.1,0c2.1,0.1,4.1-0.3,6.2,0.4
			C105.4,80.6,105.5,81,105.3,81.6z"/>
		<path class="st0" d="M58.9,77.9c-0.6,0.1-1.2,0.2-1.8,0.3c-1.9,0.5-3.8,0.4-5.8,0.3c-1.4-0.9-0.3-1.6,0.2-2.4
			c0.2-1.4,0.6-2.7,2.3-2.5c1.4,0.1,1.1,1.1,1.1,2.3c0.1,2,2.7,0.2,3.9,1.2c0.3,0.2,0.4,0.3,0.3,0.5C59.1,77.8,59,77.9,58.9,77.9z"
			/>
		<path class="st0" d="M49.8,89.7c0,6.3,0,12.5,0,18.8c0,0-0.3,0-0.3,0l-0.3,0.1c-1-1.6-0.6-3.3-0.3-5c0-4.6,0.1-9.3,0.1-13.9
			C49.5,89.2,49.7,89.2,49.8,89.7z"/>
		<path class="st0" d="M67.8,155.5c0,3.8,0,7.6,0.1,11.4c-0.3,0.1-0.6,0.2-0.9,0.3c-2.1,0.3-4.2,0.7-6.3-0.3
			c0.3-0.3,0.6-0.5,0.9-0.8c3-1.3,4.7-3.2,4.2-6.7c-0.2-1.3,0-2.6,0.8-3.8C67,155.2,67.4,155.2,67.8,155.5z"/>
		<path class="st0" d="M415.1,105.6c0-2.7,0-5.4,0-8.1c2.5,2.8,1.7,6,1.7,9.1C415.8,107,415.6,106.1,415.1,105.6z"/>
		<path class="st0" d="M57.4,184.2c5.3,0,10.5,0,15.8,0c0,0.1,0,0.3,0,0.4c-5.3,0-10.5,0-15.8,0C57.3,184.5,57.4,184.4,57.4,184.2z"
			/>
		<path class="st0" d="M48.2,144.8c0.3,0,0.6,0,1,0c0.9,3.2,0.2,6.5,0.4,9.7c0,1.6,0,3.3,0,4.9c0,0.5,0,0.9-0.2,1.3
			c-0.4,0.4-0.7,0.4-1.1,0.1C48,155.5,47.6,150.1,48.2,144.8z"/>
		<path class="st0" d="M414.3,71.3c-2.4,0.1-4.2-0.4-4.8-2.7c-0.1-0.3,0.6-1.2,1-1.2C413.2,67.1,412.9,70,414.3,71.3z"/>
		<path class="st0" d="M415.1,105.6c0.6,0.3,1.1,0.6,1.7,0.9c0,0.3,0.1,0.5,0.2,0.8c-0.1,1.8-0.2,3.7-0.3,5.5
			c-0.6,0.4-1.2,0.4-1.7-0.1C415.1,110.3,415.1,108,415.1,105.6z"/>
		<path class="st0" d="M51.6,76.1c-0.2,0.7-0.5,1.3-0.7,2c0.3,0.3,0.4,0.7,0.3,1.1c-0.7,1.1-0.9,2.8-2.9,2.4
			C48.3,79.1,46.7,75.6,51.6,76.1z"/>
		<path class="st0" d="M178.5,188.5c1.6-1.9,3-0.8,4.2,0.5c0.8,0.8,0.2,1.9-0.4,2.3c-1.3,0.9-2.4,0-3.2-1
			C179.3,189.5,178.9,189,178.5,188.5z"/>
		<path class="st0" d="M50,160.8c0.1,3.7,0.2,7.5-0.9,11.3c-2.1-1.7,0.8-2.9,0.1-4.3c-0.7-2.3-0.7-4.7-0.1-7l0.1,0.1
			C49.4,160.4,49.7,160.4,50,160.8z"/>
		<path class="st0" d="M50.8,79.2c0-0.4,0.1-0.7,0.1-1.1c2.1,0,4.2,0,6.3,0.1c0.3,0.5,0.6,1.1,0.8,1.6c-2.1,0.6-4.6-2.3-6.3,0.8
			C51.1,80.3,50.8,79.8,50.8,79.2z"/>
		<path class="st0" d="M50.8,79.2c0.3,0.5,0.6,0.9,0.9,1.4c-0.6,1.2-1.1,2.4-1.7,3.7c-0.6,0.5-1.2,0.5-1.8,0c0-0.9,0.1-1.8,0.1-2.6
			C49.1,80.8,50,80,50.8,79.2z"/>
		<path class="st0" d="M91,183.9c-1.6-0.1-3.5,0.9-5.2-1.5c2.6,0,4.7,0,6.9,0C93.2,184,91.4,183.2,91,183.9z"/>
		<path class="st0" d="M60.7,167c2.1,0.1,4.2,0.2,6.3,0.3c-3.6,0.8-7.2,1.9-10.6-0.4C57.8,167.4,59.2,167.2,60.7,167z"/>
		<path class="st0" d="M405.4,181c0.8-1.8,2-2.4,3.6-2.1c0.3,0.1,0.7,0.9,0.6,1C408.6,181.2,407.3,181.5,405.4,181z"/>
		<path class="st0" d="M217.2,181.6c1.8-0.7,3.6-1.7,5.9-0.8C221.2,182.5,219.2,182.3,217.2,181.6z"/>
		<path class="st0" d="M48.2,84.2c0.6,0,1.2,0,1.8,0c0,1.4,0.1,2.8,0.1,4.2c-0.1,0.4-0.2,0.8-0.3,1.2c-0.2-0.1-0.4-0.1-0.7-0.1
			C49.8,87.6,46.2,86.5,48.2,84.2z"/>
		<path class="st0" d="M162.2,79.1c2.7-0.1,5.3-0.2,8-0.3c0.9,0.1,1.8,0.2,2.7,0.3c0,0.2,0,0.4,0,0.6c-1.5,0.1-3,0.1-4.6,0.2
			c-1.9,1.2-3.8,0.9-5.8,0.4C162.1,80,162,79.6,162.2,79.1z"/>
		<path class="st0" d="M60.8,79.8c3.5,0,7.1,0,10.6,0c0.3,0.2,0.4,0.3,0.3,0.5c-0.1,0.2-0.2,0.2-0.3,0.2
			C67.9,80.4,64.2,81.6,60.8,79.8z"/>
		<path class="st0" d="M416.8,163.5c0,2.3-0.1,4.7-0.1,7c-2.3,0.5-1.9-1-1.7-2.3c0.1-0.2,0.3-0.3,0.4-0.5
			C416.3,166.4,414.4,164.2,416.8,163.5z"/>
		<path class="st0" d="M59.7,88.9c-1.3-1.6,0.8-5.3-3.3-5.2c1.4-2.6,3,0.1,4.5-0.2c0.1,0.3,0.1,0.5-0.2,0.7
			C59.4,85.6,61.3,87.6,59.7,88.9z"/>
		<path class="st0" d="M268.1,74.3c-0.3,0.4-0.5,0.8-0.8,1.2c-1.6,0.1-1.5-0.8-1-1.9c1.1-1.4,1.9-4.1,4.4-1.6
			C270.8,73.8,268.4,72.8,268.1,74.3z"/>
		<path class="st0" d="M250.4,75.4c1.6,0.1,3.2-0.4,5,1c-1.4,1.1-2.8,0.6-4.1,0.7C250.8,76.6,249.9,76.4,250.4,75.4z"/>
		<path class="st0" d="M242.4,77.1c-1.5,0.8-3.1,1.3-4.9,0.5c1.4-2,3.3-1.1,4.9-1.3c0.3,0.2,0.4,0.3,0.3,0.5
			C242.6,77,242.5,77.1,242.4,77.1z"/>
		<path class="st0" d="M105.3,81.6c0-0.2,0-0.5,0-0.7c1.8-1.8,4-0.7,6.1-1c1.1,0.1,2.2,0,2.9,1c0,0.2,0,0.5,0,0.7
			C111.2,81.5,108.2,81.6,105.3,81.6z"/>
		<path class="st0" d="M69.6,83.3c-2.9,0.1-5.9,0.2-8.8,0.3c2.7-2.4,5.9-0.6,8.8-1.1c0.3,0.2,0.4,0.4,0.3,0.5
			C69.8,83.2,69.7,83.3,69.6,83.3z"/>
		<path class="st0" d="M57.2,169.9l-0.4,0c0,0-0.4,0-0.4,0c2.9-2.1,5.8-1.2,8.8-0.3c-2.1,0.1-4.1,0.1-6.2,0.2
			C58.4,170.3,57.8,170.3,57.2,169.9z"/>
		<path class="st0" d="M59.3,192.2c-1,1.6-2,2.1-3.4,1.3c-0.3-0.2-0.6-1-0.4-1.1C56.6,191.3,57.8,191.6,59.3,192.2z"/>
		<path class="st0" d="M141.7,77.2c-2.7,1.3-5.3,1.3-8,0C136.4,77.2,139.1,77.2,141.7,77.2z"/>
		<path class="st0" d="M91,183.9c0.6-0.5,1.1-1,1.7-1.5c1.2,0,2.3,0,3.5-0.1c-0.3,0.6-0.5,1.1-0.8,1.7
			C93.9,183.9,92.4,183.9,91,183.9z"/>
		<path class="st0" d="M91.9,80.5c-2.4,0.1-4.8,0.2-7.2,0.3c-0.3-0.1-0.6-0.2-0.9-0.3c-0.2-0.5-0.1-0.9,0.4-1.2c2.4,0,4.8-0.1,7.2,0
			C92,79.6,92.2,80,91.9,80.5z"/>
		<path class="st0" d="M69.6,83.3c0-0.3,0-0.5,0-0.8c2.7,0,5.3,0,8,0c0.3,0.2,0.4,0.3,0.3,0.5c-0.1,0.2-0.2,0.2-0.3,0.2
			C75,83.2,72.3,83.2,69.6,83.3z"/>
		<path class="st0" d="M203.5,78.2c-0.4-0.1-0.8-0.2-1.2-0.3c0-0.2,0-0.4,0-0.6c2.4,0,4.7,0,7.1,0c0.3,0.2,0.4,0.4,0.3,0.5
			c-0.1,0.2-0.2,0.3-0.3,0.3C207.4,78.1,205.4,78.1,203.5,78.2z"/>
		<path class="st0" d="M49.1,160.8c0,2.3,0,4.7,0.1,7c-2-2.1-0.8-4.6-0.9-7C48.5,160.8,48.8,160.8,49.1,160.8z"/>
		<path class="st0" d="M229.1,70c-0.3-2.3,1.1-2.4,2.9-2.5C231.6,69.5,230.7,70.3,229.1,70L229.1,70z"/>
		<path class="st0" d="M49,103.5c0.1,1.7,0.2,3.3,0.3,5c-0.1,0.9,0.1,1.9-0.9,2.5C48.3,108.5,48.2,105.9,49,103.5z"/>
		<path class="st0" d="M229,70c-0.1,1.1-0.3,2-1.5,2.4c-0.2,0.1-0.8-0.5-0.8-0.7C226.8,70.1,227.6,69.6,229,70
			C229.1,70,229,70,229,70z"/>
		<path class="st0" d="M77.6,83.2c0-0.2,0-0.5,0-0.7c2.1,0,4.2,0,6.2,0c0,0.3,0,0.5,0,0.8C81.8,83.2,79.7,83.2,77.6,83.2z"/>
		<path class="st0" d="M242.4,77.1c0-0.3,0-0.5,0-0.8c0.9-0.3,1.8-0.5,2.6-0.8c0.5,0.7,2.3-0.1,1.7,1.6
			C245.3,77.1,243.9,77.1,242.4,77.1z"/>
		<path class="st0" d="M83.9,79.8c0,0.2,0,0.5,0,0.7c-2.1,0-4.2,0-6.2,0c-0.3-0.2-0.4-0.3-0.3-0.5c0.1-0.2,0.2-0.2,0.3-0.2
			c0.9,0,1.7-0.1,2.6-0.1C81.5,78.9,82.7,78.7,83.9,79.8z"/>
		<path class="st0" d="M77.6,79.9c0,0.2,0,0.5,0,0.7c-2.1,0-4.2,0-6.2,0c0-0.2,0-0.5,0-0.7C73.5,79.8,75.6,79.8,77.6,79.9z"/>
		<path class="st0" d="M396.4,185c-0.3,0.3-0.6,0.6-1,0.8c-0.6,0.5-1.2,0.4-1.7-0.1c0-0.6,0-1.2,0-1.8c1,0,2,0,3,0
			c0.5,0,0.8,0.2,0.4,0.7C397.1,184.9,396.7,184.9,396.4,185z"/>
		<path class="st0" d="M416.5,185.9c1.1-0.2,1.4,0.3,1.6,0.9c0.2,0.8,0.1,1.5-0.8,1.7c-0.7,0.2-1.2-0.3-1.2-0.9
			C416.1,186.9,416.4,186.3,416.5,185.9z"/>
		<path class="st0" d="M415.1,112.7c0.6,0,1.1,0.1,1.7,0.1c0,1.4,0.1,2.9,0.1,4.3c-2,0.1-0.9-1.7-1.4-2.4c-0.1-0.1-0.3-0.3-0.5-0.3
			C415,113.9,415,113.3,415.1,112.7z"/>
		<path class="st0" d="M419.6,164.3c0,1.8,0,3.6,0,5.4c-0.2,0.4-0.5,0.4-0.7,0C418.9,168,418,166,419.6,164.3z"/>
		<path class="st0" d="M230.8,77.5c-2.1,0.6-3.3,0.7-4.7,0.2C227.4,76.6,228.7,77.1,230.8,77.5z"/>
		<path class="st0" d="M209.4,78.1c0-0.3,0-0.5,0-0.8c1.7-0.1,3.4-0.5,5.2,0.4C212.9,78.6,211.1,78.3,209.4,78.1z"/>
		<path class="st0" d="M246.8,77.1c-0.6-0.5-1.2-1.1-1.7-1.6c0.9,0,1.8,0,2.7-0.1c0.4,0.8,2.3-0.1,1.7,1.7
			C248.5,77.1,247.7,77.1,246.8,77.1z"/>
		<path class="st0" d="M266.3,73.5c0.3,0.7,0.1,1.6,1,1.9c0,0.9-0.6,1.7-1.3,1.1C265.1,75.7,265.2,74.5,266.3,73.5z"/>
		<path class="st0" d="M268.1,74.3c-0.1-1.9,1.9-1.3,2.6-2.3C271.9,75.1,268.4,72.8,268.1,74.3z"/>
		<path class="st0" d="M50,160.8c-0.3,0-0.5,0-0.8,0c0-1.8,0-3.6,0-5.4c0.2-0.4,0.4-0.4,0.6-0.1c0.1,0.9,0.3,1.9,0.4,2.8
			C50.1,159.1,50.1,160,50,160.8z"/>
		<path class="st0" d="M418.8,157.4c1.2,1.7,1.3,3.5-0.1,5.2C418.7,160.8,418.8,159.1,418.8,157.4z"/>
		<path class="st0" d="M422.7,81.7c-0.1-0.2-0.3-0.7-0.5-1.2c-0.2-0.8-0.1-1.4,0.9-1.5c0.7,0,1,0.5,1.1,1.1
			C424.3,80.6,424.1,81.1,422.7,81.7z"/>
		<path class="st0" d="M178.5,188.5c0.8,0,1.9-0.4,2.1,0.7c0.2,1-0.8,0.9-1.5,1C178.6,189.8,178.1,189.3,178.5,188.5z"/>
		<path class="st0" d="M52.7,136.8c-0.2,1.5,0.6,3.1-0.8,4.4c0-1.1,0-2.3-0.1-3.4c0-0.3,0-0.6,0-1C52.1,136.4,52.4,136.4,52.7,136.8
			z"/>
		<path class="st0" d="M418.8,169.8c0.2,0,0.5,0,0.7,0c0.3,0.3,0.5,0.6,0.8,0.9c-0.1,0.7,0,1.7-1,1.4
			C418.3,171.7,418.8,170.6,418.8,169.8z"/>
		<path class="st0" d="M58.9,77.9c0-0.3,0-0.5,0-0.8c1.5,0,3,0,4.5,0c0,0.3,0,0.6,0,0.8C61.9,77.9,60.4,77.9,58.9,77.9z"/>
		<path class="st0" d="M249.4,77.1c-0.6-0.6-1.2-1.1-1.7-1.7c0.9,0,1.8,0,2.6,0c0.3,0.6,0.6,1.2,0.9,1.7
			C250.6,77.1,250,77.1,249.4,77.1z"/>
		<path class="st0" d="M335,85.1c23.3-0.6,46.6-1.2,69.9,0.6c-4.8,2.8-34.8,3.6-58.3,2.1c-7.5-0.9-15-0.1-22.5-0.5
			c-0.6-0.1-0.9-0.4-0.9-1.1c0.8-1.1,1.9-0.5,2.9-0.7C329,85.3,332,86.2,335,85.1z"/>
		<path class="st0" d="M68.7,89.8c-1.8,1.8-0.3,4.1-0.9,6c-0.5,0.3-1,0.2-1.3-0.3c-0.7-0.9-0.6-2.3-1.8-3.4c-1.2,1.4-0.8,3-0.8,4.5
			c0,9.2,0.1,18.3-0.1,27.5c0,2,0.7,4.6-2.2,5.6c-1.1-1.1-0.8-2.5-0.9-3.8c-0.2-3.8-0.5-7.7-0.4-11.5c0-6.3,0-12.6,0-18.9
			c0-2.2,0-4.4,0.7-6.5c0.3-0.5,0.7-0.8,1.2-1c9.2-0.3,18.4-0.3,27.7,0c0.5,0.2,0.9,0.5,1.2,1C83.7,90.4,76.2,89.1,68.7,89.8z"/>
		<path class="st0" d="M61.4,94.9c0,6.5,0,13.1,0,19.6c-0.7,2.3-0.1,4.6-0.3,6.9c-0.1,0.9,0.3,2.2-1.4,2l0,0
			c-0.6-11.1-0.5-22.2,0-33.3c0-0.4,0-0.9,0-1.3c0.6-1.5-0.5-3.4,1.1-4.7c0,0.8,0.1,1.6,0.1,2.4c0.2,0.6,0.8,0.7,1.1,1.2
			c0.1,0.4,0,0.7-0.2,1l0-0.1C60.5,90.8,61.2,92.8,61.4,94.9z"/>
		<path class="st0" d="M323.4,86.7c6.3,0.1,12.6,0.1,19,0.3c1.4,0,3-0.5,4.2,0.8c-10.6,0.1-21.2,0.3-31.8-0.7c1-1.5,2.5-0.9,3.9-1.1
			C320.2,86.1,321.9,85.7,323.4,86.7z"/>
		<path class="st0" d="M61.6,87.9c-0.2-0.4-0.5-0.8-0.7-1.2c10,0.1,20,0.2,30,0.4c0.3,0.6,0.1,1-0.6,1.1
			C80.7,88.1,71.1,88.7,61.6,87.9z"/>
		<path class="st0" d="M221.9,81.7c7.4,0,14.9-0.1,22.3-0.1c0.2,1.5-1,1.1-1.7,1.1c-6.9,0-13.7-0.1-20.6-0.2
			c-0.3-0.2-0.4-0.4-0.3-0.5C221.7,81.8,221.8,81.7,221.9,81.7z"/>
		<path class="st0" d="M90.9,87.8c0.1-0.3,0.1-0.5,0-0.8c3,0,6,0,9,0c0.6,0.4,1.5,0.6,0.9,1.7c-3.2,0.1-6.4,0.2-9.6,0.3
			c-0.1-0.1-0.1-0.3-0.2-0.4c-0.3-0.2-0.4-0.3-0.3-0.5C90.7,87.9,90.8,87.8,90.9,87.8z"/>
		<path class="st0" d="M284.7,86c-2.5,0.5-5,1.3-8,0.5C279.6,85.7,282,84.4,284.7,86z"/>
		<path class="st0" d="M298.5,85.3c2.7,0,5.4,0,8,0c0.2,0.4,0.2,0.7-0.1,1c-0.4,0.1-0.7,0-1.1-0.2c-2.3,0.9-4.6,1.1-6.9,0
			c-0.3-0.2-0.4-0.3-0.3-0.5C298.3,85.3,298.4,85.3,298.5,85.3z"/>
		<path class="st0" d="M138.8,93.4c0.2,1-0.1,1.6-1,1.7c-1.4,0.2-2.2-0.7-2.3-2c-0.1-1,0.5-1.7,1.5-1.7
			C138.2,91.4,138.5,92.5,138.8,93.4z"/>
		<path class="st0" d="M335,85.1c-2.8,1.8-5.9,0.5-8.9,0.9c-0.3-0.2-0.4-0.4-0.3-0.6c0.1-0.2,0.2-0.3,0.3-0.3
			C329,84.9,332,84.7,335,85.1z"/>
		<path class="st0" d="M100.8,88.7c-0.3-0.6-0.6-1.1-0.9-1.7c1.5,0,3-0.1,4.4-0.1c0.9,0.8,0.7,1.7,0.3,2.6c-0.4,0.4-0.8,0.4-1.2,0
			C102.8,88.5,101.7,88.9,100.8,88.7z"/>
		<path class="st0" d="M221.9,81.7c0,0.3,0,0.5,0,0.8c-2.9,0-5.9,0.1-8.8,0.1c0-0.2,0-0.3-0.1-0.5c0-0.2,0-0.4,0-0.6
			C215.9,81.6,218.9,81.7,221.9,81.7z"/>
		<path class="st0" d="M306.4,85.9c0-0.2,0.1-0.4,0.1-0.6c2.7,0,5.3,0,8,0c0.3,0.5,0.1,0.9-0.4,1.2c-0.9,0.4-1.9-0.1-2.8,0
			C309.7,86.2,307.9,87,306.4,85.9z"/>
		<path class="st0" d="M311.9,86.1c0.9-0.1,1.7-0.1,2.6-0.2c1-0.6,2.1-0.3,3.2-0.3c0.5,0.2,0.6,0.5,0.4,1c-1.1,0.1-2.2,0.3-3.4,0.4
			c-1,0-2-0.1-2.9-0.1c-0.3-0.2-0.4-0.4-0.3-0.6C311.6,86.2,311.8,86.1,311.9,86.1z"/>
		<path class="st0" d="M104.4,89.4c-0.1-0.8-0.1-1.6-0.2-2.5c1.1,0.2,2.7-0.7,3.1,0.7c0.4,1.3-1.6,0.8-2.1,1.7
			C105,89.8,104.7,89.8,104.4,89.4z"/>
		<path class="st0" d="M293.1,86c-1.6,0.8-3.2,0.9-5.2-0.8c2.2,0,3.7,0,5.3,0c0.3,0.2,0.3,0.4,0.2,0.6C293.3,86,293.2,86,293.1,86z"
			/>
		<path class="st0" d="M311.9,86.1c0,0.3,0,0.6-0.1,0.9c-2.2,0.1-4.5,1-6.4-1c0.3,0,0.7-0.1,1-0.1C308.2,86,310,86.1,311.9,86.1z"/>
		<path class="st0" d="M318.1,86.1c-1.2-0.1-2.4-0.1-3.6-0.2c0-0.2,0.1-0.4,0.1-0.6c2.1,0,4.1-0.1,6.2-0.1c0.3,0.4,0.2,0.8-0.1,1.1
			C319.7,86.5,318.9,86.6,318.1,86.1z"/>
		<path class="st0" d="M104.4,89.4c0.3,0,0.5,0,0.8,0c0.5,0.4,1.6,1.1,1,1.5c-1.1,0.6-2.6,0.7-2.8-1.3
			C103.7,89.5,104.1,89.5,104.4,89.4z"/>
		<path class="st0" d="M320.7,86c0-0.3,0-0.5,0.1-0.8c1.8,0,3.6,0,5.3,0c0,0.3,0,0.5,0,0.8c-0.9,0-1.8,0.1-2.6,0.1
			C322.5,86.6,321.6,86.7,320.7,86z"/>
		<path class="st0" d="M293.1,86c0-0.3,0-0.5,0-0.8c1.8,0,3.6,0,5.3,0c0,0.2,0,0.5,0,0.7C296.7,86,294.9,86,293.1,86z"/>
		<path class="st0" d="M61.7,129.7c1.4-3.7,0.6-7.6,0.7-11.4c0.1-8.2,0-16.3,0.1-24.5c0-1.7-1-4.2,2.3-4.2c3.1,0.1,1.8,2.4,2,3.9
			c0.1,0.7,0.1,1.5,0.1,2.2c0.9,1.7,0.2,3.6,0.5,5.4c0,2.3,0,4.7,0,7c0,1.8,0,3.7,0,5.5c0,2.7,0,5.4,0,8.1c0,6,0,12,0,18
			c0,1.6,0,3.2,0,4.8c0,1.6,0,3.1,0,4.7c-0.2,2,0.5,4.2-0.4,6.2c0,1.7-0.3,3.5,0,5.2c0.7,4.3-0.8,6.4-5.4,5.5c0-1.5,0-3,0-4.5
			c-1.2-2.6,0.2-5.5-0.8-8.1c-0.3-1.7-0.7-3.3-0.4-5c0.6-1.6,0.3-3.3,0.4-4.9c0-1.9,0-3.8,0-5.7c0-1.2,0-2.4,0-3.6
			c0-1.2-0.1-2.4,0.2-3.6C61,130.3,61.3,130,61.7,129.7z"/>
		<path class="st0" d="M59.7,90.2c0,11.1,0,22.2,0,33.3C59,112.4,59.1,101.3,59.7,90.2z"/>
		<path class="st0" d="M59.7,123.5c2.4-2.6-0.3-6.3,1.7-9c0,3.9,0,7.7,0,11.6c-0.9,1,0.9,3.3-1.7,3.6
			C59.4,127.6,59.3,125.6,59.7,123.5z"/>
		<path class="st0" d="M61.5,137.7c0,2.1,0,4.2,0,6.2c-0.4,0.6-0.6,1.4-1.6,0.9c0-2.1,0-4.1,0-6.2C60.3,138.1,60.5,137.3,61.5,137.7
			z"/>
		<path class="st0" d="M61.5,152.7c0,3,0.1,6,0.1,9c-2.4-2.6-0.1-6.2-1.7-8.9C60.4,152.3,61,152.3,61.5,152.7z"/>
		<path class="st0" d="M59.7,129.7c1.5-0.7,0.5-2.7,1.7-3.6c0.1,1.2,0.2,2.4,0.3,3.6c0,0.3-0.1,0.6-0.2,0.8c-1,0.6,0.6,3-1.7,2.7
			C59.8,132.1,59.8,130.9,59.7,129.7z"/>
		<path class="st0" d="M59.9,144.8c0.5-0.3,1.1-0.6,1.6-0.9c0,1.5,0.7,3.2-0.7,4.5c-0.3,0.4-0.6,0.4-0.9-0.1
			C59.9,147.2,59.9,146,59.9,144.8z"/>
		<path class="st0" d="M59.8,133.2c0.6-0.9,1.2-1.8,1.7-2.7c0,1.2,0,2.4,0,3.6c-0.6,0.5,0.1,2.3-1.7,1.8
			C59.8,135,59.8,134.1,59.8,133.2z"/>
		<path class="st0" d="M59.8,135.9c0.6-0.6,1.1-1.2,1.7-1.8c0,1.2,0,2.4,0,3.5c-0.5,0.3-1.1,0.6-1.6,0.9
			C59.8,137.7,59.8,136.8,59.8,135.9z"/>
		<path class="st0" d="M59.9,148.3c0.3,0,0.6,0,0.9,0.1c-0.2,1.5-0.2,3,0.7,4.3c-0.5,0-1.1,0-1.6,0
			C59.9,151.3,59.9,149.8,59.9,148.3z"/>
		<path class="st0" d="M134.7,81.5c0-0.2-0.1-0.4-0.1-0.7c0.7-1.1,1.8-1,2.8-1c1,0,2.1-0.1,3.1-0.3c0.4,0.1,0.8,0.2,1.2,0.2
			c2,0.1,3.9,0,5.9,0.1c1.7,0,3.3,0,5,0c1.8,0,3.6,0,5.4,0c3.5,0.2,6.9,0.3,10.4,0.8c11.8,0.1,23.6,0.1,35.5,0.2
			c1.6,0,3.3-0.4,4.7,0.7c-0.9,0.8-1.8,0.6-2.8,0.2C182.1,81.6,158.4,81.6,134.7,81.5z"/>
		<path class="st0" d="M168.5,80.6c-3.6,0-7.1,0-10.7,0c-0.3-0.5-0.2-0.9,0.3-1.1c1.4,0,2.8-0.4,4.2,0.3c2.1,0.1,4.1,0.1,6.2,0.2
			C168.5,80.1,168.5,80.4,168.5,80.6z"/>
		<path class="st0" d="M205.8,81.7c0.9-0.1,1.9-0.1,2.8-0.2c1.5,0,2.9,0.1,4.4,0.1c0,0.2,0,0.4,0,0.6c-2.4,0-4.7,0-7.1,0
			C205.8,82,205.8,81.9,205.8,81.7z"/>
		<path class="st0" d="M83.9,79.8c-1.2,0-2.4-0.1-3.6-0.1c0-0.2,0-0.5,0-0.7c1.4-1,3-0.6,4.5-0.3c8,0.1,16,0.2,24.1,0.3
			c0.2,0.6,0.1,1-0.6,1.1c-3.1,0.1-6.2,0-9.3,0c-2.3-0.2-4.7,0.4-7-0.4C89.2,79.8,86.5,79.8,83.9,79.8z"/>
		<path class="st0" d="M84.8,78.8c-1.5,0.1-3,0.2-4.5,0.3c-3.9-0.7-7.9,0.4-11.8-0.9C73.9,78.2,79.4,77.3,84.8,78.8z"/>
		<path class="st0" d="M132,79.9c-0.4,0.7-1.2,0.8-1.9,0.8c-3.6-0.9-7.2-0.1-10.8-0.4c-0.5-0.2-0.7-0.6-0.7-1.1c4.5,0,8.9,0,13.4,0
			c0.3,0.2,0.4,0.3,0.3,0.5C132.2,79.8,132.1,79.9,132,79.9z"/>
		<path class="st0" d="M150.6,78.8c1.2,0.1,2.4,0.2,3.6,0.3c0.3,0.5,0.2,0.9-0.3,1.1c-0.7,0.1-1.4,0.1-2.1,0.1c-1.7,0-3.4,0-5,0
			c-2-0.2-4,0.5-5.9-0.4l-0.1,0c-0.3-0.2-0.4-0.4-0.3-0.5c0.1-0.2,0.2-0.2,0.3-0.2C144.1,79,147.4,78.9,150.6,78.8z"/>
		<path class="st0" d="M140.9,79.1c0,0.3,0,0.5,0,0.8c-0.9,0.3-1.9,0.5-2.8,0.8c-1.6-1-3.6,0.3-5.2-0.8c-0.3,0-0.6,0-0.9,0.1
			c0-0.3,0-0.5,0-0.8C134.9,79.1,137.9,79.1,140.9,79.1z"/>
		<path class="st0" d="M118.6,79.1c0,0.2,0,0.4-0.1,0.6c-0.2,0.2-0.4,0.3-0.5,0.5c-2.2,0.1-4.3,0-6.5,0.1c-0.9-0.1-2,0.3-2.7-0.5
			c0-0.2,0-0.4,0-0.6C112.1,79.1,115.3,79.1,118.6,79.1z"/>
		<path class="st0" d="M49.8,155.4c-0.2,0-0.4,0.1-0.6,0.1c0-3.6,0-7.1,0-10.7c0.2-1.2-0.3-2.5,0.7-3.6
			C49.8,146,49.8,150.7,49.8,155.4z"/>
		<path class="st0" d="M52.7,136.8l-0.4,0c0,0-0.4,0-0.4,0c0.3-2.4-0.8-4.9,0.8-7.1C52.6,132,52.7,134.4,52.7,136.8z"/>
		<path class="st0" d="M66.9,140.3c0-6.2,0-12.5,0-18.7c0.3-0.4,0.6-0.4,0.9,0c0,6.2,0,12.5,0,18.7
			C67.5,140.8,67.2,140.7,66.9,140.3z"/>
		<path class="st0" d="M67.8,121.6c-0.3,0-0.6,0-0.9,0c0-2.7,0-5.3,0-8c0.3-0.4,0.6-0.4,0.9,0C67.8,116.3,67.8,119,67.8,121.6z"/>
		<path class="st0" d="M66.9,108.3c0-2.4,0-4.8,0-7.1c0.3-0.4,0.6-0.4,0.9,0c0,2.4,0,4.7,0,7.1C67.5,108.7,67.2,108.7,66.9,108.3z"
			/>
		<path class="st0" d="M66.9,155.5c0-2.1,0-4.2,0-6.2c0.3-0.4,0.6-0.4,0.9,0c0,2.1,0,4.2,0,6.2C67.5,155.5,67.2,155.5,66.9,155.5z"
			/>
		<path class="st0" d="M67.8,101.2c-0.3,0-0.6,0-0.9,0c0-1.8,0-3.6,0-5.3c0.3,0,0.6,0,0.9,0C67.8,97.6,67.8,99.4,67.8,101.2z"/>
		<path class="st0" d="M66.9,108.3c0.3,0,0.6,0,0.9,0c0,1.8,0,3.6,0,5.3c-0.3,0-0.6,0-0.9,0C66.9,111.8,66.9,110.1,66.9,108.3z"/>
		<path class="st0" d="M67.8,149.2c-0.3,0-0.6,0-0.9,0c0-1.5,0-3,0-4.5c0.3-0.4,0.6-0.4,0.8,0C67.8,146.3,67.8,147.8,67.8,149.2z"/>
		<path class="st0" d="M67.8,144.8c-0.3,0-0.6,0-0.8,0c0-1.5,0-3,0-4.5c0.3,0,0.6,0,0.9,0C67.8,141.8,67.8,143.3,67.8,144.8z"/>
		<path class="st0" d="M57.2,169.9c0.6,0,1.2,0,1.8-0.1c1.4,1.3,3.1,0.6,4.6,0.8c1.4,0.2,3.3-0.4,3.2,1.9c-0.1,2.3-2.1,1.7-3.4,1.6
			C60.4,174.1,56.3,175.5,57.2,169.9z"/>
		<path class="st0" d="M415.4,114.8c0.5,0.8,0.9,1.6,1.4,2.4c0.5,15.4,0.4,30.9,0,46.3c-1.4,1-0.1,3.1-1.4,4.1
			C415,150,414.9,132.4,415.4,114.8z"/>
		<path class="st0" d="M54.4,189.3c-1.3,0-2-0.5-1.6-1.9c0.1-0.2,0.8-0.6,1-0.5C54.7,187.5,54.4,188.4,54.4,189.3
			C54.4,189.3,54.4,189.3,54.4,189.3z"/>
		<path class="st0" d="M393.8,185.8c0.6,0,1.1,0,1.7,0.1c-0.2,1.3,0,2.6-1.2,3.9C393.1,188.4,393.4,187.1,393.8,185.8z"/>
		<path class="st0" d="M154.2,79.7c0-0.2,0-0.4,0-0.7c2.4-0.1,4.7-0.2,7.1-0.3c0.3,0.1,0.6,0.2,0.9,0.3c0,0.2,0,0.4,0,0.6
			c-1.5,0.1-3,0.1-4.5,0.2C156.6,80.3,155.4,80.5,154.2,79.7z"/>
		<path class="st0" d="M118.6,79.7c3.8,0.7,7.8-0.8,11.5,1c-3.8,0-7.6-0.1-11.5-0.1c0-0.2,0-0.4,0-0.6L118.6,79.7z"/>
		<path class="st0" d="M118.6,79.9c0,0.2,0,0.4,0,0.6c-1.5,0.1-3,0.2-4.5,0.3c-0.9-0.1-1.8-0.2-2.7-0.3c-0.3-0.1-0.4-0.3-0.3-0.4
			c0.1-0.1,0.2-0.2,0.3-0.2C113.9,79.9,116.3,79.9,118.6,79.9z"/>
		<path class="st0" d="M132.8,79.8c1.7,0.3,3.7-0.7,5.2,0.8c-1.1,0.1-2.3,0.2-3.4,0.2C133.9,80.7,133,80.8,132.8,79.8z"/>
		<path class="st0" d="M111.5,79.9c0,0.2,0,0.4,0,0.6c-2.1,0.1-4.2,0.2-6.3,0.3c-2.1-0.1-4.1-0.2-6.2-0.3c-0.3-0.2-0.4-0.3-0.3-0.4
			c0.1-0.1,0.2-0.2,0.3-0.2c3.3-0.1,6.5-0.1,9.8-0.2C109.7,79.8,110.6,79.8,111.5,79.9z"/>
		<path class="st0" d="M99,79.9c0,0.2,0,0.4,0,0.7c-2.4,0-4.8,0-7.1,0c0-0.2,0-0.4,0-0.7C94.3,79.9,96.6,79.9,99,79.9z"/>
		<path class="st0" d="M320.7,86c0.9,0.1,1.8,0.1,2.7,0.2c0,0.2,0,0.4,0,0.6c-1.8,0-3.6,0-5.3,0c0-0.2,0-0.4,0-0.5
			C318.9,86.1,319.8,86,320.7,86z"/>
		<path class="st0" d="M90.9,87.8c0.2,0.2,0.2,0.5,0,0.8c-9.7,0.1-19.4,0.2-29.2,0.3c-0.1-0.3-0.1-0.7-0.2-1
			C71.3,87.8,81.1,87.8,90.9,87.8z"/>
		<path class="st0" d="M61.4,94.9c-1-2.1-1.5-4.2,0.4-6.1C61.7,90.8,61.6,92.9,61.4,94.9z"/>
		<path class="st0" d="M63.6,136.8c0-2.1,0-4.1,0-6.2c0.1,0,0.3,0,0.4,0c0,2.1,0,4.1,0,6.2C63.9,136.8,63.8,136.8,63.6,136.8z"/>
		<path class="st0" d="M140.9,79.8c2.1,0,4.1,0.1,6.2,0.1c0.3,0.1,0.4,0.3,0.3,0.4c-0.1,0.1-0.2,0.2-0.3,0.2
			C145,80.4,142.8,81.5,140.9,79.8z"/>
		<path class="st0" d="M154.2,79.7c1.2,0,2.4,0.1,3.5,0.1c0,0.2,0,0.5,0,0.7c-1.8,0-3.6,0-5.3,0c-0.3-0.1-0.4-0.3-0.3-0.4
			c0.1-0.1,0.2-0.2,0.3-0.2C153,79.8,153.6,79.8,154.2,79.7z"/>
		<path class="st0" d="M152.4,79.9c0,0.2,0,0.4,0,0.7c-1.8,0-3.6,0-5.4,0c0-0.2,0-0.4,0-0.6C148.8,79.9,150.6,79.9,152.4,79.9z"/>
	</g>
</g>
<g id="_x31_0_:_90_:_78">
</g>
</svg>
